<svg width="676" height="1136" xmlns="http://www.w3.org/2000/svg" xmlns:xlink="http://www.w3.org/1999/xlink" overflow="hidden"><defs><clipPath id="clip0"><path d="M21 20 697 20 697 1156 21 1156Z" fill-rule="evenodd" clip-rule="evenodd"/></clipPath></defs><g clip-path="url(#clip0)" transform="translate(-21 -20)"><rect x="21" y="809" width="673" height="106" fill="#D9D9D9"/><text font-family="Bahnschrift,Bahnschrift_MSFontService,sans-serif" font-weight="700" font-size="15" transform="translate(30.7279 868)">Tiefgangbehindert</text><rect x="21" y="21" width="673" height="106" fill="#D9D9D9"/><text font-family="Bahnschrift,Bahnschrift_MSFontService,sans-serif" font-weight="700" font-size="15" transform="translate(30.7281 80)">Grundsitzer</text><rect x="21" y="291" width="673" height="106" fill="#D9D9D9"/><text font-family="Bahnschrift,Bahnschrift_MSFontService,sans-serif" font-weight="700" font-size="15" transform="translate(30.7281 350)">Manövrierbehindert</text><rect x="21" y="200" width="673" height="79" fill="#D9D9D9"/><text font-family="Bahnschrift,Bahnschrift_MSFontService,sans-serif" font-weight="700" font-size="15" transform="translate(30.7281 245)">Manövrierunfähig</text><path d="M518 223C518 214.716 524.492 208 532.5 208 540.508 208 547 214.716 547 223 547 231.284 540.508 238 532.5 238 524.492 238 518 231.284 518 223Z" fill="#FF0000" fill-rule="evenodd"/><path d="M518 254C518 245.716 524.492 239 532.5 239 540.508 239 547 245.716 547 254 547 262.284 540.508 269 532.5 269 524.492 269 518 262.284 518 254Z" fill="#FF0000" fill-rule="evenodd"/><path d="M300 223C300 214.716 306.492 208 314.5 208 322.508 208 329 214.716 329 223 329 231.284 322.508 238 314.5 238 306.492 238 300 231.284 300 223Z" fill-rule="evenodd"/><path d="M300 254C300 245.716 306.492 239 314.5 239 322.508 239 329 245.716 329 254 329 262.284 322.508 269 314.5 269 306.492 269 300 262.284 300 254Z" fill-rule="evenodd"/><path d="M518 314C518 305.716 524.492 299 532.5 299 540.508 299 547 305.716 547 314 547 322.284 540.508 329 532.5 329 524.492 329 518 322.284 518 314Z" fill="#FF0000" fill-rule="evenodd"/><path d="M518.5 345C518.5 336.992 524.992 330.5 533 330.5 541.008 330.5 547.5 336.992 547.5 345 547.5 353.008 541.008 359.5 533 359.5 524.992 359.5 518.5 353.008 518.5 345Z" stroke="#000000" stroke-miterlimit="8" fill="#FFFFFF" fill-rule="evenodd"/><path d="M300 314C300 305.716 306.492 299 314.5 299 322.508 299 329 305.716 329 314 329 322.284 322.508 329 314.5 329 306.492 329 300 322.284 300 314Z" fill-rule="evenodd"/><path d="M300 376.5C300 368.492 306.492 362 314.5 362 322.508 362 329 368.492 329 376.5 329 384.508 322.508 391 314.5 391 306.492 391 300 384.508 300 376.5Z" fill-rule="evenodd"/><path d="M518 376.5C518 368.492 524.492 362 532.5 362 540.508 362 547 368.492 547 376.5 547 384.508 540.508 391 532.5 391 524.492 391 518 384.508 518 376.5Z" fill="#FF0000" fill-rule="evenodd"/><path d="M300 344.5 314.5 330 329 344.5 314.5 359Z" fill-rule="evenodd"/><path d="M518 41.5C518 33.4919 524.492 27 532.5 27 540.508 27 547 33.4919 547 41.5 547 49.5081 540.508 56 532.5 56 524.492 56 518 49.5081 518 41.5Z" fill="#FF0000" fill-rule="evenodd"/><path d="M547.5 102.5C547.5 94.2158 554.216 87.5001 562.5 87.5001 570.784 87.5001 577.5 94.2158 577.5 102.5 577.5 110.784 570.784 117.5 562.5 117.5 554.216 117.5 547.5 110.784 547.5 102.5Z" stroke="#000000" stroke-miterlimit="8" fill="#FFFFFF" fill-rule="evenodd"/><path d="M300 41.5C300 33.4919 306.492 27 314.5 27 322.508 27 329 33.4919 329 41.5 329 49.5081 322.508 56 314.5 56 306.492 56 300 49.5081 300 41.5Z" fill-rule="evenodd"/><path d="M300 102.5C300 94.4919 306.492 88 314.5 88 322.508 88 329 94.4919 329 102.5 329 110.508 322.508 117 314.5 117 306.492 117 300 110.508 300 102.5Z" fill-rule="evenodd"/><path d="M518 72C518 63.7157 524.492 57 532.5 57 540.508 57 547 63.7157 547 72 547 80.2843 540.508 87 532.5 87 524.492 87 518 80.2843 518 72Z" fill="#FF0000" fill-rule="evenodd"/><path d="M300 72C300 63.7157 306.492 57 314.5 57 322.508 57 329 63.7157 329 72 329 80.2843 322.508 87 314.5 87 306.492 87 300 80.2843 300 72Z" fill-rule="evenodd"/><rect x="300" y="845" width="29" height="30"/><path d="M518 830.5C518 822.492 524.492 816 532.5 816 540.508 816 547 822.492 547 830.5 547 838.508 540.508 845 532.5 845 524.492 845 518 838.508 518 830.5Z" fill="#FF0000" fill-rule="evenodd"/><path d="M518 861C518 852.716 524.492 846 532.5 846 540.508 846 547 852.716 547 861 547 869.284 540.508 876 532.5 876 524.492 876 518 869.284 518 861Z" fill="#FF0000" fill-rule="evenodd"/><path d="M518 891.5C518 883.492 524.492 877 532.5 877 540.508 877 547 883.492 547 891.5 547 899.508 540.508 906 532.5 906 524.492 906 518 899.508 518 891.5Z" fill="#FF0000" fill-rule="evenodd"/><rect x="21" y="927" width="673" height="75" fill="#D9D9D9"/><text font-family="Bahnschrift,Bahnschrift_MSFontService,sans-serif" font-weight="700" font-size="15" transform="translate(30.7279 971)">Fischer</text><path d="M518 948.5C518 940.492 524.492 934 532.5 934 540.508 934 547 940.492 547 948.5 547 956.508 540.508 963 532.5 963 524.492 963 518 956.508 518 948.5Z" fill="#FF0000" fill-rule="evenodd"/><path d="M518.5 979.5C518.5 971.216 524.992 964.5 533 964.5 541.008 964.5 547.5 971.216 547.5 979.5 547.5 987.784 541.008 994.5 533 994.5 524.992 994.5 518.5 987.784 518.5 979.5Z" stroke="#000000" stroke-miterlimit="8" fill="#FFFFFF" fill-rule="evenodd"/><path d="M329 948 314.5 962 300 948Z" fill-rule="evenodd"/><path d="M300 977 314.5 962 329 977Z" fill-rule="evenodd"/><rect x="23" y="1014" width="674" height="75" fill="#D9D9D9"/><text font-family="Bahnschrift,Bahnschrift_MSFontService,sans-serif" font-weight="700" font-size="15" transform="translate(32.964 1058)">Trawler</text><path d="M520 1036C520 1027.72 526.492 1021 534.5 1021 542.508 1021 549 1027.72 549 1036 549 1044.28 542.508 1051 534.5 1051 526.492 1051 520 1044.28 520 1036Z" fill="#70AD47" fill-rule="evenodd"/><path d="M520.5 1067C520.5 1058.99 526.992 1052.5 535 1052.5 543.008 1052.5 549.5 1058.99 549.5 1067 549.5 1075.01 543.008 1081.5 535 1081.5 526.992 1081.5 520.5 1075.01 520.5 1067Z" stroke="#000000" stroke-miterlimit="8" fill="#FFFFFF" fill-rule="evenodd"/><path d="M331 1036 316 1050 301 1036Z" fill-rule="evenodd"/><path d="M301 1065 316 1050 331 1065Z" fill-rule="evenodd"/><rect x="21" y="138" width="673" height="50" fill="#D9D9D9"/><text font-family="Bahnschrift,Bahnschrift_MSFontService,sans-serif" font-weight="700" font-size="15" transform="translate(30.7281 169)">Ankerlieger</text><path d="M547.5 163.5C547.5 155.216 554.216 148.5 562.5 148.5 570.784 148.5 577.5 155.216 577.5 163.5 577.5 171.784 570.784 178.5 562.5 178.5 554.216 178.5 547.5 171.784 547.5 163.5Z" stroke="#000000" stroke-miterlimit="8" fill="#FFFFFF" fill-rule="evenodd"/><rect x="21" y="655" width="673" height="142" fill="#D9D9D9"/><text font-family="Bahnschrift,Bahnschrift_MSFontService,sans-serif" font-weight="700" font-size="15" transform="translate(30.7277 723)">Manövrierbehinderter<tspan x="0" y="17">Schleppverband</tspan></text><path d="M518 705C518 696.716 524.492 690 532.5 690 540.508 690 547 696.716 547 705 547 713.284 540.508 720 532.5 720 524.492 720 518 713.284 518 705Z" fill="#FF0000" fill-rule="evenodd"/><path d="M518.5 738.5C518.5 730.216 524.992 723.5 533 723.5 541.008 723.5 547.5 730.216 547.5 738.5 547.5 746.784 541.008 753.5 533 753.5 524.992 753.5 518.5 746.784 518.5 738.5Z" stroke="#000000" stroke-miterlimit="8" fill="#FFFFFF" fill-rule="evenodd"/><path d="M518 771C518 762.716 524.492 756 532.5 756 540.508 756 547 762.716 547 771 547 779.284 540.508 786 532.5 786 524.492 786 518 779.284 518 771Z" fill="#FF0000" fill-rule="evenodd"/><rect x="479.5" y="706.5" width="30" height="30" stroke="#000000" stroke-miterlimit="8" fill="#FFFF00"/><rect x="479.5" y="739.5" width="30" height="29" stroke="#000000" stroke-miterlimit="8" fill="#FFFFFF"/><rect x="556.5" y="690.5" width="30" height="29" stroke="#000000" stroke-miterlimit="8" fill="#FFFFFF"/><rect x="556.5" y="722.5" width="29" height="30" stroke="#000000" stroke-miterlimit="8" fill="#FFFFFF"/><rect x="556.5" y="755.5" width="29" height="29" stroke="#000000" stroke-miterlimit="8" fill="#FFFFFF"/><text font-family="Calibri,Calibri_MSFontService,sans-serif" font-weight="400" font-size="9" transform="translate(556.477 773)">&gt;200 m</text><rect x="21" y="409" width="673" height="111" fill="#D9D9D9"/><text font-family="Bahnschrift,Bahnschrift_MSFontService,sans-serif" font-weight="700" font-size="15" transform="translate(30.7277 445)">Mänovrierbehindertes<tspan x="149.167" y="0">Fzg</tspan>.<tspan font-weight="400" x="0" y="17">bei der Arbeit,</tspan><tspan font-weight="400" x="0" y="35">dass die Schifffahrt behindert</tspan><tspan font-weight="400" x="0" y="52">(Passieren auf der linken Seite)</tspan></text><path d="M300 433.5C300 425.492 306.492 419 314.5 419 322.508 419 329 425.492 329 433.5 329 441.508 322.508 448 314.5 448 306.492 448 300 441.508 300 433.5Z" fill-rule="evenodd"/><path d="M300 495.5C300 487.492 306.492 481 314.5 481 322.508 481 329 487.492 329 495.5 329 503.508 322.508 510 314.5 510 306.492 510 300 503.508 300 495.5Z" fill-rule="evenodd"/><path d="M300 464 314.5 449 329 464 314.5 479Z" fill-rule="evenodd"/><text font-family="Calibri,Calibri_MSFontService,sans-serif" font-weight="400" font-size="24" transform="translate(350.159 438)">[L]  [R]</text><path d="M345 463 360 448 375 463 360 478Z" fill-rule="evenodd"/><path d="M345 495.5 360 481 375 495.5 360 510Z" fill-rule="evenodd"/><path d="M384 463C384 454.716 390.492 448 398.5 448 406.508 448 413 454.716 413 463 413 471.284 406.508 478 398.5 478 390.492 478 384 471.284 384 463Z" fill-rule="evenodd"/><path d="M384 495.5C384 487.492 390.492 481 398.5 481 406.508 481 413 487.492 413 495.5 413 503.508 406.508 510 398.5 510 390.492 510 384 503.508 384 495.5Z" fill-rule="evenodd"/><path d="M518 433.5C518 425.492 524.492 419 532.5 419 540.508 419 547 425.492 547 433.5 547 441.508 540.508 448 532.5 448 524.492 448 518 441.508 518 433.5Z" fill="#FF0000" fill-rule="evenodd"/><path d="M518.5 464.5C518.5 456.216 524.992 449.5 533 449.5 541.008 449.5 547.5 456.216 547.5 464.5 547.5 472.784 541.008 479.5 533 479.5 524.992 479.5 518.5 472.784 518.5 464.5Z" stroke="#000000" stroke-miterlimit="8" fill="#FFFFFF" fill-rule="evenodd"/><path d="M518 496C518 487.716 524.492 481 532.5 481 540.508 481 547 487.716 547 496 547 504.284 540.508 511 532.5 511 524.492 511 518 504.284 518 496Z" fill="#FF0000" fill-rule="evenodd"/><text font-family="Calibri,Calibri_MSFontService,sans-serif" font-weight="400" font-size="24" transform="translate(561.643 439)">[L]  [R]</text><path d="M558 463C558 454.716 564.716 448 573 448 581.284 448 588 454.716 588 463 588 471.284 581.284 478 573 478 564.716 478 558 471.284 558 463Z" fill="#70AD47" fill-rule="evenodd"/><path d="M558 494C558 485.716 564.716 479 573 479 581.284 479 588 485.716 588 494 588 502.284 581.284 509 573 509 564.716 509 558 502.284 558 494Z" fill="#70AD47" fill-rule="evenodd"/><path d="M594 463C594 454.716 600.716 448 609 448 617.284 448 624 454.716 624 463 624 471.284 617.284 478 609 478 600.716 478 594 471.284 594 463Z" fill="#FF0000" fill-rule="evenodd"/><path d="M594 494C594 485.716 600.716 479 609 479 617.284 479 624 485.716 624 494 624 502.284 617.284 509 609 509 600.716 509 594 502.284 594 494Z" fill="#FF0000" fill-rule="evenodd"/><text font-family="Calibri,Calibri_MSFontService,sans-serif" font-weight="400" font-size="24" transform="translate(475.814 678)">[H]          [V]</text><rect x="21" y="532" width="673" height="111" fill="#D9D9D9"/><text font-family="Bahnschrift,Bahnschrift_MSFontService,sans-serif" font-weight="700" font-size="15" transform="translate(30.7277 567)">Mänovrierbehindertes<tspan x="149.167" y="0">Fzg</tspan>.<tspan font-weight="400" x="0" y="17">bei der Arbeit,</tspan><tspan font-weight="400" x="0" y="35">dass die Schifffahrt NICHT behindert</tspan><tspan font-weight="400" x="0" y="52">(Passieren auf beiden Seiten)</tspan></text><path d="M518 556C518 547.716 524.492 541 532.5 541 540.508 541 547 547.716 547 556 547 564.284 540.508 571 532.5 571 524.492 571 518 564.284 518 556Z" fill="#FF0000" fill-rule="evenodd"/><path d="M518.5 587C518.5 578.992 524.992 572.5 533 572.5 541.008 572.5 547.5 578.992 547.5 587 547.5 595.008 541.008 601.5 533 601.5 524.992 601.5 518.5 595.008 518.5 587Z" stroke="#000000" stroke-miterlimit="8" fill="#FFFFFF" fill-rule="evenodd"/><path d="M518 618.5C518 610.492 524.492 604 532.5 604 540.508 604 547 610.492 547 618.5 547 626.508 540.508 633 532.5 633 524.492 633 518 626.508 518 618.5Z" fill="#FF0000" fill-rule="evenodd"/><text font-family="Calibri,Calibri_MSFontService,sans-serif" font-weight="400" font-size="24" transform="translate(561.643 562)">[L]  [R]</text><path d="M558 586C558 577.716 564.716 571 573 571 581.284 571 588 577.716 588 586 588 594.284 581.284 601 573 601 564.716 601 558 594.284 558 586Z" fill="#70AD47" fill-rule="evenodd"/><path d="M558 617C558 608.716 564.716 602 573 602 581.284 602 588 608.716 588 617 588 625.284 581.284 632 573 632 564.716 632 558 625.284 558 617Z" fill="#70AD47" fill-rule="evenodd"/><path d="M594 586C594 577.716 600.716 571 609 571 617.284 571 624 577.716 624 586 624 594.284 617.284 601 609 601 600.716 601 594 594.284 594 586Z" fill="#70AD47" fill-rule="evenodd"/><path d="M594 617C594 608.716 600.716 602 609 602 617.284 602 624 608.716 624 617 624 625.284 617.284 632 609 632 600.716 632 594 625.284 594 617Z" fill="#70AD47" fill-rule="evenodd"/><text font-family="Calibri,Calibri_MSFontService,sans-serif" font-weight="400" font-size="24" transform="translate(340.491 597)">n/a<tspan x="0" y="135">n/a</tspan></text><rect x="23" y="1101" width="674" height="54" fill="#D9D9D9"/><text font-family="Bahnschrift,Bahnschrift_MSFontService,sans-serif" font-weight="700" font-size="15" transform="translate(32.964 1134)">Gefährliche Ladung</text><path d="M349 1142 324 1142 309 1127 324 1112 349 1112 334 1127Z" fill="#FF0000" fill-rule="evenodd"/><rect x="300" y="1112" width="29" height="30" fill="#FF0000"/><rect x="520.5" y="1114.5" width="29" height="29" stroke="#000000" stroke-miterlimit="8" fill="#FFFFFF"/><path d="M552 1128C552 1119.72 558.716 1113 567 1113 575.284 1113 582 1119.72 582 1128 582 1136.28 575.284 1143 567 1143 558.716 1143 552 1136.28 552 1128Z" fill="#FF0000" fill-rule="evenodd"/></g></svg>